<?xml version="1.0" encoding="utf-8"?>
<!-- Generator: Adobe Illustrator 18.1.1, SVG Export Plug-In . SVG Version: 6.00 Build 0)  -->
<svg version="1.1" id="Layer_1" xmlns="http://www.w3.org/2000/svg" xmlns:xlink="http://www.w3.org/1999/xlink" x="0px" y="0px"
	 viewBox="0 0 24 24" enable-background="new 0 0 24 24" xml:space="preserve">
<g>
	<path fill="#F29C1F" d="M3.8,15.2C3.7,15.2,3.7,15.2,3.8,15.2c-0.2,0-0.4-0.1-0.5-0.3l-2.7-4c-0.2-0.3-0.1-0.6,0.2-0.8
		C1,10,1.4,10,1.5,10.3l2.3,3.4l2.6-3.1c0.2-0.2,0.6-0.3,0.8-0.1c0.2,0.2,0.3,0.6,0.1,0.8L4.2,15C4.1,15.1,3.9,15.2,3.8,15.2z"/>
	<path fill="#F29C1F" d="M22.9,15.4c-0.2,0-0.4-0.1-0.5-0.3l-2.3-3.4l-2.6,3.1c-0.2,0.2-0.6,0.3-0.8,0.1c-0.2-0.2-0.3-0.6-0.1-0.8
		l3.1-3.7c0.1-0.1,0.3-0.2,0.5-0.2c0.2,0,0.3,0.1,0.4,0.3l2.7,4c0.2,0.3,0.1,0.6-0.2,0.8C23.2,15.4,23,15.4,22.9,15.4z"/>
	<path fill="#F29C1F" d="M12,21c-2.3,0-4.5-0.9-6.2-2.6c-0.2-0.2-0.2-0.6,0-0.8c0.2-0.2,0.6-0.2,0.8,0c1.9,1.9,4.6,2.6,7.2,2
		c3.9-0.9,6.7-4.9,5.9-8.8c-0.1-0.3,0.1-0.6,0.5-0.7c0.3-0.1,0.6,0.1,0.7,0.5c0.8,4.4-2.3,9-6.8,10.1C13.3,21,12.7,21,12,21z"/>
	<path fill="#F29C1F" d="M3.8,15.1c-0.3,0-0.5-0.2-0.5-0.4c-0.6-2.3-0.3-4.7,1-6.8C5.5,5.8,7.6,4.2,10,3.6c3.2-0.7,6.5,0.3,8.6,2.8
		c0.2,0.2,0.2,0.6-0.1,0.8c-0.2,0.2-0.6,0.2-0.8-0.1c-1.9-2.1-4.8-3-7.5-2.4C8.2,5.2,6.3,6.6,5.2,8.5c-1.1,1.8-1.4,3.9-0.9,5.9
		c0.1,0.3-0.1,0.6-0.4,0.7C3.9,15.1,3.8,15.1,3.8,15.1z"/>
</g>
</svg>
