<?xml version="1.0" encoding="utf-8"?>
<!-- Generator: Adobe Illustrator 16.0.0, SVG Export Plug-In . SVG Version: 6.00 Build 0)  -->
<!DOCTYPE svg PUBLIC "-//W3C//DTD SVG 1.1//EN" "http://www.w3.org/Graphics/SVG/1.1/DTD/svg11.dtd">
<svg version="1.1" id="Layer_1" xmlns="http://www.w3.org/2000/svg" xmlns:xlink="http://www.w3.org/1999/xlink" x="0px" y="0px"
	 width="256px" height="256px" viewBox="-105.04 -105.04 256 256" enable-background="new -105.04 -105.04 256 256"
	 xml:space="preserve">
<g id="Layer_1_1_">
	<path opacity="0.5" enable-background="new    " d="M23.96-104.5c-70.392,0-127.46,57.07-127.46,127.46
		s57.068,127.46,127.46,127.46c70.391,0,127.46-57.07,127.46-127.46S94.351-104.5,23.96-104.5z M19.965,118.829
		c-10.16,0.943-20.318-8.267-20.266-20.091c0.058-11.156,9.217-20.265,20.431-20.265c11.16,0,20.093,9.162,20.208,20.428
		C40.507,109.95,30.79,119.832,19.965,118.829z M66.538,21.184c-5.827,4.441-11.769,8.661-17.26,13.431
		c-7.33,6.278-11.439,14.215-10.832,24.206c0.281,4.555,0.06,4.555-4.603,4.555c-9.162,0-18.21-0.06-27.316,0.054
		c-2.385,0.055-3.275-0.499-3.328-3.16c-0.169-10.55,0.72-20.818,5.716-30.479c3.442-6.555,8.326-11.827,14.044-16.601
		C28.4,8.583,34.228,4.251,39.004-1.021c7.552-8.327,7.497-24.54,0.612-32.365c-8.993-10.271-28.481-8.661-36.807,3.052
		c-4.275,6.053-6.107,12.993-6.383,20.262c-0.055,3.221-1.167,1.058-4.109,1c-10.157-0.166-20.262-2.887-30.422-2.887h-4.382
		c0.998,0,1.441-9.324,2.775-15.044c6.939-28.312,29.755-44.522,58.955-44.688c12.103-0.111,23.872,1.553,35.028,6.438
		c16.325,7.107,27.644,19.21,30.479,37.03C87.747-8.849,82.856,8.637,66.538,21.184z"/>
</g>
<g id="Layer_2">
</g>
</svg>
