<?xml version="1.0" encoding="utf-8"?>
<!-- Generator: Adobe Illustrator 18.1.1, SVG Export Plug-In . SVG Version: 6.00 Build 0)  -->
<svg version="1.1" id="Layer_1" xmlns="http://www.w3.org/2000/svg" xmlns:xlink="http://www.w3.org/1999/xlink" x="0px" y="0px"
	 viewBox="0 0 254.9 254.9" enable-background="new 0 0 254.9 254.9" xml:space="preserve">
<path fill="#F39C13" d="M123.9,129v-11c-4.5-1.9-7.7-6-7.7-10.8V87c0-4.8,3.2-8.9,7.7-10.8V54.6h-5.1c-21.5,0-38.9,16.8-38.9,37.6
	V129H123.9L123.9,129z"/>
<g>
	<path fill="#FAFAFA" d="M137.8,104.3c0,4.7-3.8,8.6-8.6,8.6l0,0c-4.7,0-8.6-3.8-8.6-8.6V89.7c0-4.7,3.8-8.6,8.6-8.6l0,0
		c4.7,0,8.6,3.8,8.6,8.6V104.3z"/>
	<path fill="#FAFAFA" d="M134.7,76.2c4.5,1.9,7.7,6,7.7,10.8v20.3c0,4.8-3.2,8.9-7.7,10.8v11h44V92.2c0-20.8-17.4-37.6-38.9-37.6
		h-5.1V76.2z"/>
	<path fill="#FAFAFA" d="M79.9,132.2v28.5c0,20.8,17.4,37.6,38.9,37.6h20.9c21.5,0,38.9-16.8,38.9-37.6v-28.5H79.9z"/>
	<path fill="#FAFAFA" d="M51.4,98.9c0-2.3-1.3-2.8-2.9-1.1l-24.9,26.8c-1.6,1.7-1.5,4.5,0.1,6.1l24.7,24.7c1.7,1.7,3,1.1,3-1.2v-1.1
		c0-2.3,1.9-4.2,4.2-4.2h11.3c2.3,0,4.2-1.9,4.2-4.2v-36.2c0-2.3-1.9-4.2-4.2-4.2H55.6c-2.3,0-4.2-1.9-4.2-4.2V98.9L51.4,98.9z"/>
	<path fill="#FAFAFA" d="M207.2,154.1c0,2.3,1.3,2.9,2.9,1.1l24.9-26.8c1.6-1.7,1.5-4.5-0.1-6.1l-24.7-24.7c-1.7-1.7-3-1.1-3,1.2
		v1.1c0,2.3-1.9,4.2-4.2,4.2h-11.3c-2.3,0-4.2,1.9-4.2,4.2v35.9c0,2.3,1.9,4.2,4.2,4.2H203c2.3,0,4.2,1.9,4.2,4.2V154.1L207.2,154.1
		z"/>
	<path fill="#FAFAFA" d="M157.7,30.3c1.9,0,2.3-1,0.9-2.3l-28-26.1c-1.4-1.3-3.6-1.2-4.9,0.1L99.8,27.9c-1.3,1.3-0.9,2.4,1,2.4h2.8
		c1.9,0,3.4,1.5,3.4,3.4v12.9c0,1.9,1.5,3.4,3.4,3.4H148c1.9,0,3.4-1.5,3.4-3.4V33.7c0-1.9,1.5-3.4,3.4-3.4L157.7,30.3L157.7,30.3z"
		/>
	<path fill="#FAFAFA" d="M104,221.6c-2.3,0-2.9,1.3-1.1,2.9l26.8,24.9c1.7,1.6,4.5,1.5,6.1-0.1l24.7-24.7c1.7-1.7,1.1-3-1.2-3h-1.1
		c-2.3,0-4.2-1.9-4.2-4.2v-11.4c0-2.3-1.9-4.2-4.2-4.2h-35.9c-2.3,0-4.2,1.9-4.2,4.2v11.4c0,2.3-1.9,4.2-4.2,4.2H104L104,221.6
		L104,221.6z"/>
</g>
</svg>
