<?xml version="1.0" encoding="utf-8"?>
<!-- Generator: Adobe Illustrator 16.0.0, SVG Export Plug-In . SVG Version: 6.00 Build 0)  -->
<!DOCTYPE svg PUBLIC "-//W3C//DTD SVG 1.1//EN" "http://www.w3.org/Graphics/SVG/1.1/DTD/svg11.dtd">
<svg version="1.1" xmlns="http://www.w3.org/2000/svg" xmlns:xlink="http://www.w3.org/1999/xlink" x="0px" y="0px" width="256px"
	 height="256px" viewBox="0 0 256 256" enable-background="new 0 0 256 256" xml:space="preserve">
<g id="Layer_1" display="none">
	
		<image display="inline" overflow="visible" width="613" height="437" xlink:href="3dphylogo.png"  transform="matrix(0.7501 0 0 0.7501 -63.6274 -39.6089)">
	</image>
</g>
<g id="Layer_11">
	<path fill="#00C2A8" d="M2.384,105.295H13c0,0,0-3.005,2.507-3.005c2.506,0,2.359,2.262,2.359,2.852
		c0,0.59-0.738,2.153-2.654,2.153c-1.917,0-4.834,0-4.834,0v10h4.391c0,0,3.52-0.127,3.098,2.642
		c-0.37,2.433-1.918,2.186-2.655,2.186c-0.738,0-2.655-0.828-2.655-2.828H2.384c0,0,0.294,12.699,12.828,12.699
		c12.532,0,16.366-14.659,10.173-19.967c5.308-4.718,2.171-19.879-10.046-19.879S2.384,105.295,2.384,105.295z"/>
	<path fill="#00C2A8" d="M47.378,92.295h12.507c0,0,8.343,0.177,14.535,11.825c6.193,11.646-27.042,25.831-27.042,25.831V92.295z"/>
	<polygon fill="#00C2A8" points="222.658,92.295 233.273,92.295 237.549,100.183 241.531,92.295 252.735,92.295 241.972,112.222 
		241.825,132.295 232.39,132.295 232.83,112.295 	"/>
</g>
<g id="Layer_4">
	<polygon fill="#00C2A8" points="149.766,11.142 190.378,69.06 190.378,107.391 182.161,107.495 182.525,93.295 171.378,93.295 
		171.378,109.417 167.194,107.443 167.349,107.409 167.412,107.107 167.452,107.027 149.85,11.001 149.838,10.851 149.771,10.948 	
		"/>
	<polygon fill="#00C2A8" points="186.388,117.295 190.378,117.295 190.378,120.553 	"/>
</g>
<g id="Layer_5">
	<polygon fill="#3ECCB4" points="138.378,118.295 142.466,118.295 138.378,120.368 	"/>
	<path fill="#3ECCB4" d="M150.003,10.851l17.799,96.098l-19.984,9.191l0.036-0.044c0,0,2.999-2.512,4.034-5.901
		c1.035-3.388,2.503-13.711-8.697-17.692c-11.942,0.15-14.015,0-14.015,0l0.202,39.366v-7.077l-21.459,10.015L80.134,97.589
		L150.003,10.851z"/>
	<polygon fill="#3ECCB4" points="167.812,106.948 167.812,106.992 167.802,106.948 	"/>
</g>
<g id="Layer_9" display="none">
	
		<image display="inline" overflow="visible" width="613" height="437" xlink:href="h.png"  transform="matrix(0.9346 0 0 0.9346 -137.2515 -56.3511)">
	</image>
</g>
<g id="Layer_10">
</g>
<g id="Layer_7">
	<polygon fill="#FFFE13" points="253.368,156.302 200.511,125.764 200.378,125.676 200.378,93.295 190.378,93.295 190.378,61.835 	
		"/>
</g>
<g id="Layer_8">
	<polygon fill="#F9F44B" points="76.104,91.913 107.67,134.806 3.563,183.583 	"/>
</g>
<g id="Layer_6" display="none">
	<polygon display="inline" fill="#C840CC" points="153.778,110.515 151.548,113.125 148.378,113.295 147.728,113.295 	"/>
</g>
<g id="Layer_2">
	<polygon fill="#EA2D2D" points="253.585,156.302 194.278,252.364 167.598,107.443 167.536,107.072 167.519,106.992 
		167.181,107.037 171.378,109.417 171.378,132.295 182.378,132.295 182.378,117.295 186.388,117.295 190.378,120.553 
		190.378,133.295 200.378,133.295 200.378,125.676 200.619,125.764 	"/>
</g>
<g id="Layer_3">
	<polygon fill="#F14C4C" points="3.81,183.583 129.378,124.865 129.378,132.295 138.378,132.295 138.378,120.368 167.394,106.988 
		194.338,252.362 	"/>
</g>
</svg>
