<?xml version="1.0" encoding="utf-8"?>
<!-- Generator: Adobe Illustrator 18.1.1, SVG Export Plug-In . SVG Version: 6.00 Build 0)  -->
<svg version="1.1" id="Layer_1" xmlns="http://www.w3.org/2000/svg" xmlns:xlink="http://www.w3.org/1999/xlink" x="0px" y="0px"
	 viewBox="0 0 254.9 254.9" enable-background="new 0 0 254.9 254.9" xml:space="preserve">
<g id="Layer_3">
	<path fill="#F29C1F" d="M241.2,135.2c-4,0-7.3-3.3-7.3-7.3c0-4,3.2-7.3,7.3-7.3c4,0,7.3,3.2,7.3,7.3
		C248.4,132,245.2,135.2,241.2,135.2z M229,132.7h-4.8c-1.3,0-2.4-1.1-2.4-2.4v-4.8c0-1.3,1.1-2.4,2.4-2.4h4.8
		c1.3,0,2.4,1.1,2.4,2.4v4.8C231.5,131.6,230.4,132.7,229,132.7z M126.2,217.5C78.8,217.5,38,176,38,128s40.9-89.5,88.3-89.5
		S217,79.9,217,128S173.6,217.5,126.2,217.5z M126.3,48.2c-42.8,0-78.6,36.4-78.6,79.8s35.9,79.8,78.6,79.8s81-36.4,81-79.8
		S169,48.2,126.3,48.2z M120.2,147.2v-7.3c2.8,0.1,5.6,0.1,8.4,0.1c36.7,0,64.2-7.3,64.2-12.1s-27.5-12.1-64.2-12.1
		c-2.9,0-5.6,0.1-8.4,0.1v-7.3c2.8-0.1,5.6-0.1,8.4-0.1c42.8,0,73.8,9.7,73.8,19.3s-30.9,19.3-73.8,19.3
		C125.8,147.3,123,147.3,120.2,147.2z M158.9,128c0,4-14.1,7.3-31.4,7.3c-2.5,0-4.9-0.1-7.3-0.2V121c2.3-0.1,4.7-0.2,7.3-0.2
		C144.8,120.7,158.9,124,158.9,128z M122.6,128c0,2.7,2.2,4.8,4.8,4.8c2.6,0,4.8-2.2,4.8-4.8c0-2.6-2.2-4.8-4.8-4.8
		S122.6,125.3,122.6,128z M127.5,62.7c-4.8,0-12.1,28-12.1,65.3s7.3,65.3,12.1,65.3c3.7,0,8.8-16.5,11-41.1h7.2
		c-2.8,30.5-10.5,50.8-18.3,50.8c-9.7,0-19.3-31.4-19.3-75s9.7-75,19.3-75c7.8,0,15.5,20.3,18.3,50.8h-7.2
		C136.3,79.2,131.2,62.7,127.5,62.7z M52.5,128c0-7.7,20.9-15.3,50.8-18.1v7.2c-24.1,2.2-41.1,7.3-41.1,10.9c0,3.7,17,8.7,41.1,10.9
		v7.2C73.4,143.2,52.5,135.6,52.5,128z M96,128c0-1.8,2.7-3.4,7.3-4.6v9.3C98.7,131.3,96,129.7,96,128z M129.8,24
		c1.3,0,2.4,1.1,2.4,2.4v4.8c0,1.3-1.1,2.4-2.4,2.4H125c-1.3,0-2.4-1.1-2.4-2.4v-4.8c0-1.3,1.1-2.4,2.4-2.4
		C125,24,129.8,24,129.8,24z M127.4,21.5c-4,0-7.2-3.2-7.2-7.3s3.2-7.3,7.2-7.3c4,0,7.2,3.2,7.2,7.3S131.4,21.5,127.4,21.5z
		 M30.7,132.8h-4.8c-1.3,0-2.4-1.1-2.4-2.4v-4.8c0-1.3,1.1-2.4,2.4-2.4h4.8c1.3,0,2.4,1.1,2.4,2.4v4.8
		C33.1,131.7,32.1,132.8,30.7,132.8z M13.8,135.3c-4,0-7.3-3.3-7.3-7.3c0-4,3.3-7.3,7.3-7.3s7.3,3.2,7.3,7.3
		C21.1,132.1,17.8,135.3,13.8,135.3z M125,232c-1.3,0-2.4-1.1-2.4-2.4v-4.8c0-1.3,1.1-2.4,2.4-2.4h4.8c1.3,0,2.4,1.1,2.4,2.4v4.8
		c0,1.3-1.1,2.4-2.4,2.4H125z M127.5,234.4c4,0,7.2,3.2,7.2,7.3c0,4-3.2,7.3-7.2,7.3c-4,0-7.2-3.3-7.2-7.3
		C120.3,237.7,123.5,234.4,127.5,234.4z"/>
</g>
<g id="Layer_2">
	
		<image overflow="visible" enable-background="new    " width="1313" height="1308" xlink:href="7CC077D9FC88C73B.png"  transform="matrix(0.2396 0 0 0.2396 -29.7954 -28.6884)">
	</image>
</g>
</svg>
