<?xml version="1.0" encoding="utf-8"?>
<!-- Generator: Adobe Illustrator 16.0.0, SVG Export Plug-In . SVG Version: 6.00 Build 0)  -->
<!DOCTYPE svg PUBLIC "-//W3C//DTD SVG 1.1//EN" "http://www.w3.org/Graphics/SVG/1.1/DTD/svg11.dtd">
<svg version="1.1" id="Layer_1" xmlns="http://www.w3.org/2000/svg" xmlns:xlink="http://www.w3.org/1999/xlink" x="0px" y="0px"
	 width="256px" height="256px" viewBox="-105.04 -105.04 256 256" enable-background="new -105.04 -105.04 256 256"
	 xml:space="preserve">
<g id="Layer_1_1_">
	<path opacity="0.5" enable-background="new    " d="M23.44-105.46c-71.21,0-128.94,57.509-128.94,128.44
		s57.73,128.44,128.94,128.44c71.208,0,128.94-57.509,128.94-128.44S94.648-105.46,23.44-105.46z M-2.224,92.567
		c0,2.185-0.675,2.857-2.865,2.796c-5.729-0.108-11.457-0.108-17.241,0c-2.132,0-2.864-0.721-2.864-2.851
		c0.118-7.604,0.057-15.215,0-22.824c0-3.016-0.167-3.131-3.201-3.131c-7.63-0.055-15.325-0.114-22.966,0
		c-2.241,0.055-2.973-0.781-2.921-3.021c0.111-5.704,0.111-11.467,0-17.176c-0.058-2.064,0.61-2.797,2.689-2.742
		c7.813,0.06,15.612,0.06,23.418,0.06c7.755,0,15.561,0,23.364-0.06c2.021-0.055,2.582,0.678,2.582,2.578
		C-2.282,61.636-2.282,77.074-2.224,92.567z M-2.224,0.827C-2.163,2.841-2.838,3.57-4.913,3.57
		c-7.695-0.114-15.445-0.057-23.139-0.057c-7.806,0-15.61-0.057-23.362,0.057c-2.188,0-2.92-0.729-2.863-2.912
		c0.112-5.761,0.112-11.579,0-17.397c-0.057-2.068,0.787-2.685,2.75-2.685c7.752,0.057,15.444,0,23.132,0
		c3.095,0,3.201-0.112,3.201-3.188c0.057-7.498,0.118-15.047,0-22.599c-0.056-2.237,0.732-3.021,2.978-3.021
		c5.728,0.112,11.511,0.112,17.239,0c2.016,0,2.748,0.614,2.748,2.74C-2.282-30.052-2.282-14.611-2.224,0.827z M57.415-48.175
		c5.786,0.11,11.456,0.055,17.193-0.057c2.188,0,2.918,0.726,2.918,2.909c-0.11,7.383-0.057,15.495-0.057,22.878
		c0,3.805,0.057,4.643,3.988,4.643h21.958c2.968,0,1.234-0.671,1.234,2.184V0.212c0,3.188,1.064,3.524-2.249,3.524L80.558,3.625
		c-5.784,0-10.501-0.055-15.442-0.055c-2.528,0-4.888,0-7.411,0.055c-2.193,0-3.092-0.727-3.092-2.852
		c0.056-15.383-0.055-30.767-0.055-46.096C54.553-47.448,55.227-48.232,57.415-48.175z M106.614,63.537
		c0.061,2.239-0.67,3.075-2.974,3.021c-7.469-0.114-14.938-0.055-22.407-0.055c-3.707,0.055-3.707,0.055-3.764,3.634
		c0,7.386-0.054,14.717,0.057,22.098c0.054,2.35-0.671,3.19-3.089,3.129c-5.677-0.162-11.347-0.108-17.018,0
		c-2.134,0-2.972-0.665-2.917-2.851c0.055-15.384,0.055-30.713-0.065-46.097c0-2.119,0.733-2.852,2.928-2.797
		c7.811,0.115,15.608,0.06,23.364,0.06c7.632,0,15.272,0.056,22.911-0.06c2.304-0.055,3.027,0.732,2.974,2.972
		C106.443,52.239,106.443,57.889,106.614,63.537z"/>
</g>
<g id="Layer_2">
</g>
</svg>
