<?xml version="1.0" encoding="utf-8"?>
<!-- Generator: Adobe Illustrator 18.1.1, SVG Export Plug-In . SVG Version: 6.00 Build 0)  -->
<svg version="1.1" id="Layer_1" xmlns="http://www.w3.org/2000/svg" xmlns:xlink="http://www.w3.org/1999/xlink" x="0px" y="0px"
	 viewBox="0 -1.1 256 256" enable-background="new 0 -1.1 256 256" xml:space="preserve">
<g>
	<path fill="#FAFAFA" d="M136.6,105.3c0,4.7-3.8,8.6-8.6,8.6l0,0c-4.7,0-8.6-3.8-8.6-8.6V90.6c0-4.7,3.8-8.6,8.6-8.6l0,0
		c4.7,0,8.6,3.8,8.6,8.6V105.3z"/>
	<g>
		<path fill="#FAFAFA" d="M70.6,84.1C75,70.2,84.5,58.9,97.3,52c2.8-1.5,0.3-5.9-2.5-4.3c-14,7.6-24.2,20-29.1,35.2
			C64.8,85.9,69.6,87.2,70.6,84.1L70.6,84.1z"/>
		<path fill="#FAFAFA" d="M133.4,77.1c4.5,1.9,7.7,6,7.7,10.8v20.4c0,4.8-3.2,8.9-7.7,10.8v11h44.2V93.3c0-20.9-17.5-37.8-39.1-37.8
			h-5.1L133.4,77.1z"/>
		<path fill="#FAFAFA" d="M78.4,133.3v28.6c0,20.9,17.5,37.8,39.1,37.8h21c21.6,0,39.1-16.9,39.1-37.8v-28.6H78.4z"/>
	</g>
</g>
<path fill="#F39C13" d="M122.6,130.1v-11c-4.5-1.9-7.7-6-7.7-10.8V87.9c0-4.8,3.2-8.9,7.7-10.8V55.5h-5.1
	c-21.6,0-39.1,16.9-39.1,37.8v36.9L122.6,130.1L122.6,130.1z"/>
</svg>
