<?xml version="1.0" encoding="utf-8"?>
<!-- Generator: Adobe Illustrator 16.0.0, SVG Export Plug-In . SVG Version: 6.00 Build 0)  -->
<!DOCTYPE svg PUBLIC "-//W3C//DTD SVG 1.1//EN" "http://www.w3.org/Graphics/SVG/1.1/DTD/svg11.dtd">
<svg version="1.1" id="Layer_1" xmlns="http://www.w3.org/2000/svg" xmlns:xlink="http://www.w3.org/1999/xlink" x="0px" y="0px"
	 width="256px" height="256px" viewBox="-105.04 -105.04 256 256" enable-background="new -105.04 -105.04 256 256"
	 xml:space="preserve">
<g id="Layer_1_1_">
	<path opacity="0.5" enable-background="new    " d="M22.96-104.5c-70.392,0-127.46,57.07-127.46,127.46
		s57.068,127.46,127.46,127.46c70.391,0,127.46-57.07,127.46-127.46S93.351-104.5,22.96-104.5z M-2.244,90.965
		c0,0.054,0.434,2.385,0.046,2.385l-52.616,0.168c-3.115,0-2.944-2.444-2.944-2.499v-52.57c5.551,0,9.937-0.444,13.879-0.444h8.326
		v33.309h33.309V90.965z M-2.244-23.062h-33.309V7.861c0,0.166-1.331,0.276-1.441,0.276c-6.552,0-9.66-0.054-20.764-0.054
		l0.174-53.351c11.104,0,19.978,0,29.082,0h26.258V-23.062z M72.646,93.518H47.719V71.313h33.309v-32.81
		c0-0.055,0-0.108,0.331-0.108c6.163-0.06,10.832-0.06,16.936,0l0,0l0.06,55.123C92.798,93.577,81.694,93.518,72.646,93.518z
		 M99.07-45.267l0.353,55.342l-18.396,0.171v-33.309H47.719v-21.374c0,0,0.169-0.832,0.5-0.832H99.07
		C99.347-45.267,99.07-45.267,99.07-45.267z"/>
</g>
<g id="Layer_2">
</g>
</svg>
