<?xml version="1.0" encoding="utf-8"?>
<!-- Generator: Adobe Illustrator 18.1.1, SVG Export Plug-In . SVG Version: 6.00 Build 0)  -->
<svg version="1.1" id="Layer_1" xmlns="http://www.w3.org/2000/svg" xmlns:xlink="http://www.w3.org/1999/xlink" x="0px" y="0px"
	 viewBox="0 0 24 24" enable-background="new 0 0 24 24" xml:space="preserve">
<g>
	<path fill="#F29C1F" d="M19.3,5.3L19.3,5.3L14.9,1l-0.6-0.6L13,1.6l0.6,0.6L17,5.6h-4.5h-0.9C6.9,5.6,3,9.5,3,14.3S6.9,23,11.7,23
		c4.8,0,8.7-3.9,8.7-8.7v-1.7l-1.7,1.7c0,3.9-3,7.1-7,7.1s-7.1-3.2-7.1-7.1s3.2-7,7.1-7h0.9h4.7l-4.5,4.2l-0.6,0.6l1.2,1.2l0.6-0.6
		l5.2-5l0,0l1.2-1.2l0,0l0,0L19.3,5.3z"/>
</g>
</svg>
