<?xml version="1.0" encoding="utf-8"?>
<!-- Generator: Adobe Illustrator 18.1.1, SVG Export Plug-In . SVG Version: 6.00 Build 0)  -->
<svg version="1.1" id="Layer_1" xmlns="http://www.w3.org/2000/svg" xmlns:xlink="http://www.w3.org/1999/xlink" x="0px" y="0px"
	 viewBox="0 0 254.9 254.9" enable-background="new 0 0 254.9 254.9" xml:space="preserve">
<g id="Layer_1_1_" display="none">
</g>
<g id="Layer_2" display="none">
	<path display="inline" fill="#00C2A8" d="M146.7-115.9c-16.9,0-30.6,13.7-30.6,30.6s13.7,30.6,30.6,30.6s30.6-13.6,30.6-30.6
		S163.6-115.9,146.7-115.9z M146.7-56.1c-16.1,0-29.3-13.1-29.3-29.3s13.1-29.3,29.3-29.3s29.3,13.1,29.3,29.3
		S162.8-56.1,146.7-56.1z"/>
</g>
<g id="Layer_3" opacity="0.5">
	<path fill="#F39C13" d="M127.4,6.2C60.4,6.2,6.2,60.4,6.2,127.4s54.3,121.2,121.2,121.2s121.2-54.3,121.2-121.2
		C248.5,60.4,194.3,6.2,127.4,6.2z M225,181.2l-18.8-11c-1,1.9-2.2,3.8-3.4,5.6l18.9,11c-9,14.2-21,26.4-35.4,35.3l-11.2-18.9
		c-1.8,1.2-3.7,2.3-5.6,3.3l11.2,18.8c-14.9,8.2-32,13-50.1,13.5v-21.9c-1,0.1-2.1,0.1-3.2,0.1c-1.1,0-2.2,0-3.4-0.1v21.9
		c-17-0.5-33.1-4.8-47.3-12l10.6-19.1c-2-1-3.9-2-5.7-3.2l-10.6,19.2c-14.6-8.6-27.3-20.4-36.6-34.6l18.8-11.5
		c-1.2-1.8-2.4-3.6-3.5-5.5l-18.7,11.5c-9-15.3-14.4-33-15.1-51.8h22c-0.1-1.4-0.1-2.9-0.1-4.4c0-0.7,0-1.5,0-2.2h-22
		c0.3-18,4.9-35,12.8-49.9l19.1,11.1c1-2,2-3.8,3.2-5.7L32,69.7c8.9-14.6,21-27.1,35.4-36.3l11.3,19c1.8-1.2,3.7-2.4,5.6-3.4L73,30
		c15.2-8.6,32.7-13.6,51.2-14.1v22c1.1,0,2.2-0.1,3.4-0.1c1.1,0,2.2,0,3.2,0.1V15.9c17.4,0.5,33.9,5,48.4,12.5l-10.7,19.2
		c2,1,3.8,2,5.6,3.2l10.7-19.2c14.9,8.9,27.5,21.1,36.7,35.7l-18.7,11.5c1.2,1.8,2.3,3.7,3.4,5.6L224.8,73
		c8.8,15.5,13.8,33.4,14.1,52.3h-21.9c0,0.7,0,1.5,0,2.2c0,1.5,0,2.9-0.1,4.4h21.9C238.1,149.7,233.2,166.4,225,181.2z"/>
</g>
<g id="Layer_4">
	<path opacity="0.2" fill="#F39C13" enable-background="new    " d="M127.5,15.3c-61.9,0-112.1,50.2-112.1,112.1
		s50.2,112.1,112.1,112.1s112.1-50.2,112.1-112.1S189.4,15.3,127.5,15.3z M127.5,216.7c-49.3,0-89.2-39.9-89.2-89.2
		s39.9-89.2,89.2-89.2s89.2,39.9,89.2,89.2S176.8,216.7,127.5,216.7z"/>
</g>
<g id="Layer_5">
	<path fill="#F39C13" d="M127.5,0C57.1,0,0,57.1,0,127.5s57.1,127.5,127.5,127.5s127.5-57.1,127.5-127.5S197.9,0,127.5,0z
		 M127.5,248.7c-66.9,0-121.3-54.3-121.3-121.3C6.2,60.5,60.4,6.2,127.5,6.2c66.9,0,121.3,54.3,121.3,121.3
		C248.7,194.4,194.4,248.7,127.5,248.7z"/>
</g>
</svg>
